<svg xmlns="http://www.w3.org/2000/svg" viewBox="16 67 52 50">
  <path d="m52.7 68.4h-26.1c-2.5 0-4.6 2.1-4.6 4.6v16.7c0 2.5 2.1 4.5 4.6 4.5l30.7-0.1 0.1-21.1c0-2.5-2.1-4.6-4.7-4.6z" fill="#72d3b8"/>
  <path d="m52.9 77.1c-2.2-0.1-3.9-1.8-4-4.1v-0.1h-18.4c0 2.2-1.8 4.1-4.1 4.1v13h26.5v-12.9z" fill="#55bc9c"/>
  <path d="m39.9 75.6c-3.2 0-6.2 2.7-6.4 5.9-0.1 3.4 2.6 6.1 5.9 6.1 3.5 0.1 6.4-2.6 6.4-6s-2.8-6-5.9-6zm-9.9 3.8c-1.1 0-2.2 1-2.2 2.2 0 1.1 1 2.1 2.2 2.1 1.1 0 2-0.9 2-2 0-1.3-0.9-2.3-2-2.3zm19 0c-1.1 0-2 0.9-2.1 2.1 0 1.2 0.9 2.2 2.1 2.1 1.2 0 2.2-0.9 2.2-2 0-1.3-1-2.2-2.2-2.2z" fill="#72d3b8"/>
  <path d="m39.6 94.3 5.9 5.7 4-3.9 1-1.8z" fill="#D1D3D4"/>
  <path d="m53.5 98.3c-2.1 0-4.1 0.8-5.8 2.2l-0.9-0.9c-0.4-0.4-0.9-0.4-1.1 0l-4.8 4.7c-0.5 0.5-0.5 1.2-0.1 1.7l6.7 6.7c1.6 1.6 3.6 2.5 6 2.5 4.6 0.1 8.6-3.6 8.8-8.2 0.1-4.7-3.8-8.7-8.8-8.7zm-0.1 13.2c-2.4 0-4.9-2.1-4.9-4.7 0.1-2.4 2.2-4.5 4.8-4.5 2.4 0 4.8 1.9 4.8 4.5 0 2.5-2.1 4.6-4.7 4.7z" fill="#ed5167"/>
  <path d="m27.5 82.6c-1.3 1.2-2.1 3.2-2.1 5.3 0 2 1 4.2 2.6 5.7l12.8 12.4c-0.4-0.3-0.4-1.2 0.1-1.6l4.6-4.7-18-17.1z" fill="#F2F2F2"/>
  <path d="m34.1 99.6c-0.4-0.4-0.9-0.5-1.3 0l-1.1 0.9c-1.5-1.3-3.5-2.2-6-2.2-4.5 0-8.5 3.4-8.6 8.2-0.1 4.7 3.6 8.6 8.6 8.6 2.3 0 4.3-0.8 5.8-2.3l7.4-7.4c0.5-0.3 0.5-0.9 0.1-1l-4.9-4.8zm-8.5 11.8c-2.4 0-4.4-1.9-4.5-4.5-0.1-2.5 2.1-4.6 4.6-4.6 2.3 0 4.6 2 4.6 4.4 0 2.5-2 4.7-4.7 4.7z" fill="#ed5167"/>
  <path d="m39.4 97.5c-1.1 0-1.9 0.9-1.9 1.8 0 1 0.9 1.9 1.8 1.9 1.1 0 2-0.8 2-1.9 0-1-0.8-1.8-1.9-1.8z" fill="#343434"/>
  <linearGradient id="SVGID_1_" x1="56.56" x2="56.56" y1="-3.734" y2="5.366" gradientTransform="matrix(1 0 0 -1 0 92)" gradientUnits="userSpaceOnUse">
    <stop stop-color="#c2e8da" offset="0"/>
    <stop stop-color="#fff" offset="1"/>
  </linearGradient>
  <path d="m63.5 86.6c0.3-2.6-1.6-5.7-5.5-5.8-2 0-4.1 1.3-5 3.3-2.8-0.4-5.6 1.6-5.6 4.8 0 2.7 2 4.9 5.1 5l9.9 0.1c2.2 0 3.7-1.4 3.7-3.5 0-1.8-0.8-3.4-2.6-3.9z" fill="url(#SVGID_1_)" stroke="#55bc9c" stroke-miterlimit="10" stroke-width=".2269"/>
  <path d="m53.3 84.4 0.3 0.4-1.6 0.7c-0.5-0.2 0.2-1.1 1.3-1.1z" fill="#CBCBCA"/>
</svg>
