<svg xmlns="http://www.w3.org/2000/svg" viewBox="17 68.4 159.9 48.6">
<!-- SVG created with Arrow, by QuiverAI (https://quiver.ai) -->
  <path d="m52.7 68.4h-26.1c-2.5 0-4.6 2.1-4.6 4.6v16.7c0 2.5 2.1 4.5 4.6 4.5l30.7-0.1 0.1-21.1c0-2.5-2.1-4.6-4.7-4.6z" fill="#72d3b8"/>
  <path d="m52.9 77.1c-2.2-0.1-3.9-1.8-4-4.1v-0.1h-18.4c0 2.2-1.8 4.1-4.1 4.1v13h26.5v-12.9z" fill="#55bc9c"/>
  <path d="m39.9 75.6c-3.2 0-6.2 2.7-6.4 5.9-0.1 3.4 2.6 6.1 5.9 6.1 3.5 0.1 6.4-2.6 6.4-6s-2.8-6-5.9-6zm-9.9 3.8c-1.1 0-2.2 1-2.2 2.2 0 1.1 1 2.1 2.2 2.1 1.1 0 2-0.9 2-2 0-1.3-0.9-2.3-2-2.3zm19 0c-1.1 0-2 0.9-2.1 2.1 0 1.2 0.9 2.2 2.1 2.1 1.2 0 2.2-0.9 2.2-2 0-1.3-1-2.2-2.2-2.2z" fill="#72d3b8"/>
  <path d="m39.6 94.3 5.9 5.7 4-3.9 1-1.8z" fill="#D1D3D4"/>
  <path d="m53.5 98.3c-2.1 0-4.1 0.8-5.8 2.2l-0.9-0.9c-0.4-0.4-0.9-0.4-1.1 0l-4.8 4.7c-0.5 0.5-0.5 1.2-0.1 1.7l6.7 6.7c1.6 1.6 3.6 2.5 6 2.5 4.6 0.1 8.6-3.6 8.8-8.2 0.1-4.7-3.8-8.7-8.8-8.7zm-0.1 13.2c-2.4 0-4.9-2.1-4.9-4.7 0.1-2.4 2.2-4.5 4.8-4.5 2.4 0 4.8 1.9 4.8 4.5 0 2.5-2.1 4.6-4.7 4.7z" fill="#ed5167"/>
  <path d="m27.5 82.6c-1.3 1.2-2.1 3.2-2.1 5.3 0 2 1 4.2 2.6 5.7l12.8 12.4c-0.4-0.3-0.4-1.2 0.1-1.6l4.6-4.7-18-17.1z" fill="#F2F2F2"/>
  <path d="m34.1 99.6c-0.4-0.4-0.9-0.5-1.3 0l-1.1 0.9c-1.5-1.3-3.5-2.2-6-2.2-4.5 0-8.5 3.4-8.6 8.2-0.1 4.7 3.6 8.6 8.6 8.6 2.3 0 4.3-0.8 5.8-2.3l7.4-7.4c0.5-0.3 0.5-0.9 0.1-1l-4.9-4.8zm-8.5 11.8c-2.4 0-4.4-1.9-4.5-4.5-0.1-2.5 2.1-4.6 4.6-4.6 2.3 0 4.6 2 4.6 4.4 0 2.5-2 4.7-4.7 4.7z" fill="#ed5167"/>
  <path d="m39.4 97.5c-1.1 0-1.9 0.9-1.9 1.8 0 1 0.9 1.9 1.8 1.9 1.1 0 2-0.8 2-1.9 0-1-0.8-1.8-1.9-1.8z" fill="#343434"/>
  <linearGradient id="SVGID_1_" x1="56.56" x2="56.56" y1="-3.734" y2="5.366" gradientTransform="matrix(1 0 0 -1 0 92)" gradientUnits="userSpaceOnUse">
    <stop stop-color="#c2e8da" offset="0"/>
    <stop stop-color="#fff" offset="1"/>
  </linearGradient>
  <path d="m63.5 86.6c0.3-2.6-1.6-5.7-5.5-5.8-2 0-4.1 1.3-5 3.3-2.8-0.4-5.6 1.6-5.6 4.8 0 2.7 2 4.9 5.1 5l9.9 0.1c2.2 0 3.7-1.4 3.7-3.5 0-1.8-0.8-3.4-2.6-3.9z" fill="url(#SVGID_1_)" stroke="#55bc9c" stroke-miterlimit="10" stroke-width=".2269"/>
  <path d="m53.3 84.4 0.3 0.4-1.6 0.7c-0.5-0.2 0.2-1.1 1.3-1.1z" fill="#CBCBCA"/>
  <g fill="#55bc9c">
    <path d="m72.1 101.5 0.1-0.6c0.1-0.4 0.4-0.6 1-0.6h3.4c0.7 0 1 0.3 1 1v1c0 1.5 1 2.4 2 2.4 1.2 0 2.5-0.5 2.6-2.2 0.2-1.7-1.2-3.1-2.1-3.8l-3.6-2.8c-2.5-2-4.4-4.2-4.4-7.7 0-4.1 3.2-7.6 7.3-7.6 4.1-0.1 7.7 2.9 7.9 7.4v1.2c0 0.7-0.2 1-0.9 1h-3.5c-0.6 0-0.9-0.4-0.9-1v-1.2c0-1.3-0.9-2.1-2-2s-2.1 0.9-2.2 2.2c-0.1 1.7 1.2 2.7 2.2 3.5l3.9 3c2.3 1.8 4 4.4 4 7.9-0.1 3.9-3.5 7-8.2 7-3.9 0-7.6-2.7-7.6-7.1v-1z"/>
    <path d="m95.1 109.5v5.5c0 0.5-0.4 0.9-0.8 0.9h-3.7c-0.6 0-1.1-0.4-1.1-0.9v-20.3c0-3.2 2.9-6.7 7.1-6.8s7.3 2.8 7.3 6.6v9c0 3.7-3.4 6.2-6.8 6.1-0.7 0-1.3-0.1-2-0.3v0.2zm2.8-14.9c0-0.7-0.6-1.5-1.6-1.5s-1.6 0.9-1.6 1.5v8.8c0 1 0.8 1.4 1.6 1.4 0.6 0 1.6-0.6 1.6-1.5v-8.7z"/>
    <path d="m106 82.3c0-0.5 0.3-1.1 0.9-1.1h4.1c0.6 0 0.8 0.4 0.8 1v21c0 1.1 0.6 1.4 1.4 1.4h0.5c0.6 0 1.1 0.5 1.1 1v2.9c0 0.7-0.5 1-1.1 1h-2.1c-2.8 0-5.6-1.6-5.5-5.9l-0.1-21.3z"/>
    <path d="m116.6 81.8h3.8c0.8 0.1 1.1 0.6 1.1 1.2v3c0 0.7-0.5 1.1-1 1.1h-3.4c-0.7 0-1.1-0.4-1.1-1.2v-2.9c0-0.6 0.3-1 0.6-1.2zm-0.1 6.6h4.1c0.5 0.1 0.9 0.5 0.9 1l0.5 19.2c0 0.6-0.6 0.9-0.9 0.9h-3.7c-0.5 0-1-0.1-1.1-0.8v-19.3c0-0.5 0.3-0.8 0.2-1z"/>
    <path d="m124.9 81.8h3.8c0.7 0.1 1 0.6 1 1.2v2.9c0 0.7-0.4 1.2-1 1.2h-3.3c-0.8 0-1.2-0.5-1.2-1.2v-2.9c0.1-0.6 0.4-1 0.7-1.2zm-0.1 6.6h4c0.5 0.1 0.9 0.5 0.9 1v19.2c0 0.6-0.5 1-0.8 0.9h-3.6c-0.4 0-1.1 0-1.2-0.8v-19.3c0.1-0.5 0.3-0.8 0.7-1z"/>
    <path d="m138.8 89.1h1.4c0.7 0 1 0.3 1 0.9v2.6c0 0.6-0.3 0.9-0.9 0.9h-1.5v9.6c0 1.2 0.6 1.5 1.2 1.5h0.6c0.6 0 1 0.4 1 1v3c0 0.7-0.5 0.9-1 0.9h-2c-3.1 0-5.6-1.9-5.7-5.4v-10.7h-0.7c-0.4 0-0.9-0.4-0.9-0.9v-3.2c0-0.6 0.3-0.9 0.9-0.9h0.6v-3.2c0-0.5 0.2-0.9 1-1l3.5-0.6c0.8-0.1 1.3 0.4 1.3 1l0.2 4.5z"/>
  </g>
  <path d="m141.1 86.7c1.5-0.8 3-0.8 4.1-0.5 1.4-2.5 4.3-4.6 7.8-4.7 4.5 0 9.1 3.3 9.4 8.8 2.6-0.5 6.2 1.6 6.2 5.1" fill="none" stroke="#55bc9c" stroke-linecap="round" stroke-miterlimit="10" stroke-width="1.592"/>
  <path d="m141.1 95.9h28c3.4 0.1 6.6 2.7 6.6 6.6 0 3.6-2.6 6.6-6.8 6.6h-26.2" fill="none" stroke="#55bc9c" stroke-linecap="round" stroke-miterlimit="10" stroke-width="1.592"/>
  <g fill="#ed5167">
    <path d="m142.6 103.2c0-2 1.5-3.5 3.4-3.5 1.1 0 1.9 0.4 2.5 1 0.1 0.1 0.1 0.3 0 0.4l-0.7 0.5c-0.1 0.1-0.3 0.1-0.4 0-0.3-0.4-0.8-0.6-1.4-0.6-1.1 0-1.8 0.9-1.8 2.1s0.7 2.1 1.9 2.1c0.7 0 1.1-0.2 1.5-0.6 0.1-0.2 0.2-0.2 0.4-0.1l0.6 0.4c0.1 0.1 0.2 0.2 0.1 0.4-0.5 0.9-1.5 1.3-2.7 1.3-1.9 0-3.4-1.2-3.4-3.4z"/>
    <path d="m149.7 105v-5.2c0-0.3 0.1-0.5 0.3-0.5h0.7c0.3 0 0.5 0.1 0.5 0.4v5.1c0 0.3 0.1 0.4 0.3 0.4h0.2c0.1 0 0.2 0.1 0.2 0.2v0.8c0 0.3-0.5 0.3-0.9 0.3-0.8 0.1-1.3-0.6-1.3-1.5z"/>
    <path d="m152.7 104.1c0-1.4 1-2.4 2.5-2.4s2.7 1.1 2.7 2.4c0 1.4-1.1 2.5-2.6 2.5s-2.6-1.1-2.6-2.5zm3.7 0c0-0.7-0.5-1.2-1.1-1.2-0.8 0-1.1 0.6-1.1 1.2s0.3 1.2 1.1 1.2c0.7 0.1 1.1-0.5 1.1-1.2z"/>
    <path d="m159 104.5-0.1-2.5c0-0.2 0.1-0.3 0.4-0.3h0.8c0.3 0 0.4 0.1 0.4 0.3v2.3c0 0.6 0.4 1 0.9 1 0.4 0 1-0.3 1-1.1v-2.1c0-0.2 0.1-0.4 0.4-0.4h0.8c0.3 0 0.4 0.1 0.4 0.3v4.2c0 0.2-0.1 0.3-0.4 0.3h-0.6c-0.3 0-0.4-0.1-0.4-0.3v-0.3c-0.3 0.5-0.8 0.8-1.5 0.8-1.3 0-2.1-0.8-2.1-2.2z"/>
    <path d="m165.1 104.1c0-1.3 0.9-2.4 2.3-2.4 0.5 0 1 0.2 1.3 0.6v-2.6c0-0.2 0.1-0.4 0.4-0.4h0.7c0.3 0 0.5 0.2 0.5 0.4l-0.1 6.5c0 0.2-0.1 0.3-0.4 0.3h-0.7c-0.2 0-0.4-0.1-0.3-0.3v-0.3c-0.3 0.5-0.8 0.7-1.6 0.7-1.3 0-2.2-1-2.1-2.5zm3.6 0c0-0.7-0.4-1.2-1.1-1.2-0.6 0-1.1 0.5-1.1 1.2s0.4 1.3 1.1 1.3c0.7 0.1 1.1-0.5 1.1-1.3z"/>
  </g>
</svg>